<svg width="102" height="28" viewBox="0 0 102 28" fill="none" xmlns="http://www.w3.org/2000/svg">
<path d="M43.1331 5.97644H48.1991L38.5451 22.7036H31.0657L26.8123 5.97644H32.0216L35.2714 20.2662L43.1331 5.97644Z" fill="#131416"/>
<path d="M63.6054 5.97644C65.1507 5.97644 66.3455 6.33488 67.1898 7.05176C68.05 7.76863 68.4802 8.78022 68.4802 10.0865C68.4802 11.8708 67.8987 13.2647 66.7358 14.2683C65.5888 15.256 64.0276 15.7499 62.0522 15.7499H52.9001L51.7769 22.7036H50.4866L53.139 5.97644H63.6054ZM62.1239 14.6984C63.6213 14.6984 64.84 14.3081 65.7799 13.5275C66.7198 12.7469 67.1898 11.6557 67.1898 10.2538C67.1898 9.21831 66.8473 8.42975 66.1623 7.88811C65.4773 7.33054 64.5373 7.05176 63.3426 7.05176H54.2621L53.0434 14.6984H62.1239Z" fill="#131416"/>
<path d="M77.3982 9.89536C79.5329 9.89536 81.0702 10.2857 82.0101 11.0663C82.9659 11.8469 83.3323 12.9301 83.1093 14.3161L81.7711 22.7036H80.6958L81.1976 19.621C80.5445 20.6724 79.5408 21.5008 78.1867 22.1062C76.8486 22.6956 75.2714 22.9903 73.4554 22.9903C70.0621 22.9903 68.3655 21.9628 68.3655 19.9077C68.3655 17.5022 70.7551 16.1402 75.5343 15.8215L81.7233 15.3914L81.9384 14.101C82.0977 13.1771 81.7871 12.4044 81.0065 11.7831C80.2259 11.1459 78.9753 10.8273 77.2548 10.8273C75.7892 10.8273 74.5227 11.0663 73.4554 11.5442C72.4039 12.0221 71.711 12.739 71.3764 13.6948H70.1816C70.548 12.4363 71.3685 11.4884 72.6429 10.8512C73.9173 10.214 75.5024 9.89536 77.3982 9.89536ZM73.8616 22.0584C75.9963 22.0584 77.7327 21.6203 79.0709 20.7441C80.4091 19.852 81.1976 18.6731 81.4366 17.2075L81.58 16.2995L75.5343 16.7057C71.5517 16.9446 69.5603 17.9483 69.5603 19.7166C69.5603 20.4175 69.9108 20.9831 70.6118 21.4132C71.3127 21.8433 72.396 22.0584 73.8616 22.0584Z" fill="#131416"/>
<path d="M100.112 10.1821H101.546L91.6526 24.4957C90.7605 25.818 90.0118 26.6942 89.4064 27.1243C88.8011 27.5544 87.8612 27.7695 86.5867 27.7695C86.0291 27.7695 85.5273 27.7376 85.0813 27.6739L85.2485 26.7181C85.6787 26.7659 86.1406 26.7898 86.6345 26.7898C87.5425 26.7898 88.2435 26.6225 88.7373 26.2879C89.2312 25.9534 89.8286 25.2763 90.5295 24.2568L91.5809 22.7036H91.1269L85.7265 10.1821H87.0885L92.1066 22.1062L100.112 10.1821Z" fill="#131416"/>
<path d="M0 15.489L1.11646 12.8217H14.551C15.2876 12.8217 15.8847 13.4188 15.8847 14.1554C15.8847 14.8919 15.2876 15.489 14.551 15.489H0Z" fill="#1C77FF"/>
<path d="M7.80701 10.0387L9.50737 5.97644H14.7821C17.7134 5.97644 19.9994 6.59773 21.6403 7.84032C23.297 9.06697 24.1254 10.8193 24.1254 13.0974C24.1254 16.1242 23.0342 18.482 20.8517 20.1706C18.6692 21.8592 15.7619 22.7036 12.1297 22.7036H2.71472L2.8421 21.9003L4.20786 18.6374L8.33087 18.6373L8.33025 18.6413H12.2731C14.5034 18.6413 16.2079 18.2111 17.3868 17.3509C18.5657 16.4906 19.1551 15.2799 19.1551 13.7187C19.1551 12.5398 18.6851 11.6318 17.7452 10.9946C16.8053 10.3574 15.4273 10.0387 13.6112 10.0387H9.69232L9.69221 10.0394C9.67514 10.0389 9.65803 10.0387 9.64089 10.0387L7.80701 10.0387Z" fill="#131416"/>
</svg>
